<svg width="512" height="512" viewBox="0 0 512 512" fill="none" xmlns="http://www.w3.org/2000/svg">
  <!-- Background circle with gradient -->
  <defs>
    <linearGradient id="cardGradient" x1="0%" y1="0%" x2="100%" y2="100%">
      <stop offset="0%" style="stop-color:hsl(217, 91%, 60%);stop-opacity:1" />
      <stop offset="50%" style="stop-color:hsl(238, 91%, 65%);stop-opacity:1" />
      <stop offset="100%" style="stop-color:hsl(250, 100%, 75%);stop-opacity:1" />
    </linearGradient>
    <linearGradient id="arrowGradient" x1="0%" y1="0%" x2="100%" y2="0%">
      <stop offset="0%" style="stop-color:hsl(142, 71%, 55%);stop-opacity:1" />
      <stop offset="100%" style="stop-color:hsl(142, 71%, 45%);stop-opacity:1" />
    </linearGradient>
  </defs>

  <!-- Background -->
  <rect width="512" height="512" rx="96" fill="url(#cardGradient)"/>

  <!-- Credit Card -->
  <g transform="translate(110, 190)">
    <!-- Card body -->
    <rect x="0" y="0" width="280" height="180" rx="16" fill="white" opacity="0.95"/>

    <!-- Magnetic stripe -->
    <rect x="0" y="40" width="280" height="35" fill="hsl(217, 91%, 40%)" opacity="0.3"/>

    <!-- Card chip -->
    <rect x="30" y="95" width="45" height="38" rx="6" fill="hsl(217, 91%, 50%)" opacity="0.4"/>

    <!-- Card numbers (decorative dots) -->
    <circle cx="100" cy="130" r="4" fill="hsl(217, 91%, 50%)" opacity="0.3"/>
    <circle cx="120" cy="130" r="4" fill="hsl(217, 91%, 50%)" opacity="0.3"/>
    <circle cx="140" cy="130" r="4" fill="hsl(217, 91%, 50%)" opacity="0.3"/>
    <circle cx="160" cy="130" r="4" fill="hsl(217, 91%, 50%)" opacity="0.3"/>
  </g>

  <!-- Upward Arrow (growth indicator) - Simple clean arrow -->
  <g transform="translate(390, 280)">
    <!-- Arrow circle background -->
    <circle cx="0" cy="0" r="70" fill="url(#arrowGradient)"/>

    <!-- Clean modern arrow pointing up-right (45 degrees) -->
    <g fill="white" transform="translate(-25, 25) rotate(-45 0 0)">
      <!-- Single unified arrow shape with smooth curves -->
      <path d="M -5,0
               Q -5,-8 5,-8
               L 55,-8
               L 55,-20
               Q 58,-24 65,-20
               L 90,0
               L 65,20
               Q 58,24 55,20
               L 55,8
               L 5,8
               Q -5,8 -5,0 Z" />
    </g>
  </g>

  <!-- Subtle sparkle effect (top right) -->
  <g transform="translate(400, 150)" opacity="0.6">
    <path d="M 0,-12 L 3,0 L 0,12 L -3,0 Z" fill="white"/>
    <path d="M -12,0 L 0,3 L 12,0 L 0,-3 Z" fill="white"/>
  </g>
</svg>
